'Diagrama previo antes de aprobar el curso
'Aprobacion x CoordinacionExtension

@startuml

state c <<choice>>
state c2 <<choice>>

[*] --> Propuesta
CoordExtension <-- Propuesta : envia
CoordExtension --> VerificaFormulacion
VerificaFormulacion --> c : ¿BienFormulada?
c --> VerificacionCredenciales : [Si] 
VerificacionCredenciales --> c2 : ¿Correcta? 
c2 --> seApruebaCurso : [Si]
c --> PropuestaNegada : [No]
c2 --> PropuestaNegada : [No]
seApruebaCurso --> [*]
PropuestaNegada --> [*]

@enduml